HIERARCHY
ROOT Hips
{
	OFFSET 0.000000 0.000000 0.000000 
	CHANNELS 6 Xposition Yposition Zposition Zrotation Yrotation Xrotation
	JOINT LeftUpLeg
	{
		OFFSET 1.363060 -1.794630 0.839290 
		CHANNELS 3 Zrotation Yrotation Xrotation
		JOINT LeftLeg
		{
			OFFSET 2.448110 -6.726130 0.000000 
			CHANNELS 3 Zrotation Yrotation Xrotation
			JOINT LeftFoot
			{
				OFFSET 2.562200 -7.039590 0.000000 
				CHANNELS 3 Zrotation Yrotation Xrotation
				JOINT LeftToeBase
				{
					OFFSET 0.157640 -0.433110 2.322550 
					CHANNELS 3 Zrotation Yrotation Xrotation
					End Site
					{
						OFFSET 0.000000 0.000000 0.000000 
					}
				}
			}
		}
	}
	JOINT RightUpLeg
	{
		OFFSET -1.305520 -1.794630 0.839290 
		CHANNELS 3 Zrotation Yrotation Xrotation
		JOINT RightLeg
		{
			OFFSET -2.542530 -6.985550 0.000000 
			CHANNELS 3 Zrotation Yrotation Xrotation
			JOINT RightFoot
			{
				OFFSET -2.568260 -7.056230 0.000000 
				CHANNELS 3 Zrotation Yrotation Xrotation
				JOINT RightToeBase
				{
					OFFSET -0.164730 -0.452590 2.363150 
					CHANNELS 3 Zrotation Yrotation Xrotation
					End Site
					{
						OFFSET 0.000000 0.000000 0.000000 
					}
				}
			}
		}
	}
	JOINT Spine
	{
		OFFSET 0.028270 2.035590 -0.193380 
		CHANNELS 3 Zrotation Yrotation Xrotation
		JOINT Spine1
		{
			OFFSET 0.056720 2.048850 -0.042750 
			CHANNELS 3 Zrotation Yrotation Xrotation
			JOINT Neck1
			{
				OFFSET -0.054170 1.746240 0.172020 
				CHANNELS 3 Zrotation Yrotation Xrotation
				JOINT Head
				{
					OFFSET 0.104070 1.761360 -0.123970 
					CHANNELS 3 Zrotation Yrotation Xrotation
					End Site
					{
						OFFSET 0.000000 0.000000 0.000000 
					}
				}
			}
			JOINT LeftArm
			{
				OFFSET 3.362410 1.200890 -0.311210 
				CHANNELS 3 Zrotation Yrotation Xrotation
				JOINT LeftForeArm
				{
					OFFSET 4.983000 -0.000000 -0.000000 
					CHANNELS 3 Zrotation Yrotation Xrotation
					JOINT LeftHand
					{
						OFFSET 3.483560 -0.000000 -0.000000 
						CHANNELS 3 Zrotation Yrotation Xrotation
						JOINT LeftHandIndex1
						{
							OFFSET 0.715260 -0.000000 -0.000000 
							CHANNELS 3 Zrotation Yrotation Xrotation
							End Site
							{
								OFFSET 0.000000 0.000000 0.000000 
							}
						}
					}
				}
			}
			JOINT RightArm
			{
				OFFSET -3.136600 1.374050 -0.404650 
				CHANNELS 3 Zrotation Yrotation Xrotation
				JOINT RightForeArm
				{
					OFFSET -5.241900 -0.000000 -0.000000 
					CHANNELS 3 Zrotation Yrotation Xrotation
					JOINT RightHand
					{
						OFFSET -3.444170 -0.000000 -0.000000 
						CHANNELS 3 Zrotation Yrotation Xrotation
						JOINT RightHandIndex1
						{
							OFFSET -0.622530 -0.000000 -0.000000 
							CHANNELS 3 Zrotation Yrotation Xrotation
							End Site
							{
								OFFSET 0.000000 0.000000 0.000000 
							}
						}
					}
				}
			}
		}
	}
}
MOTION
Frames: 6
Frame Time: 0.041667
-6.244717 20.571752 0.428806 27.201340 85.613299 74.766766 -72.889872 -61.606334 -31.252386 19.968492 6.622417 55.194287 8.663720 0.466145 -65.420306 0.532300 4.675000 12.984000 80.776172 62.650646 -28.874042 -21.321139 -6.959965 57.348212 -9.757903 -4.785346 -63.044771 -0.160800 2.583600 -7.121600 -9.293063 -6.016022 -106.911098 5.805747 -4.738285 41.025028 0.735998 0.897937 8.885157 1.342900 0.489400 2.080800 -125.981282 2.118804 -10.886924 52.599381 -48.046937 -6.909117 7.767859 12.602016 30.797208 -7.125000 0.000000 0.000000 126.257844 -5.677319 -18.883365 -52.408095 48.391878 -0.721392 -1.372336 5.536992 37.890457 7.125000 0.000000 0.000000 
-6.237763 20.569560 0.442563 29.920080 85.609565 77.529188 -72.622789 -61.635080 -31.510748 19.936081 6.629899 55.338702 8.603900 0.344410 -65.343628 0.432400 4.220000 11.696500 80.629485 62.637969 -29.014345 -21.305974 -6.996441 57.526970 -9.744785 -4.874014 -63.125306 -0.146200 2.463800 -6.789200 -10.306996 -7.051549 -106.637374 6.446035 -5.192043 40.815850 0.232013 0.829704 10.219161 1.313100 0.469200 2.168500 -126.081316 2.086787 -11.191185 52.579860 -47.846525 -6.864349 7.833885 12.465560 31.102758 -7.125000 0.000000 0.000000 126.248920 -5.822992 -18.903991 -52.587116 48.570281 -0.735315 -1.273215 5.206237 38.199638 7.125000 0.000000 0.000000 
-6.227785 20.567368 0.458210 34.751416 85.717110 82.186643 -72.687113 -61.482280 -31.384130 19.897354 6.625922 55.519898 8.516302 0.178883 -65.307838 0.346800 3.784100 10.470000 81.079750 62.268525 -28.536734 -21.330183 -6.993103 57.596194 -9.743790 -5.013974 -63.197989 -0.141100 2.421200 -6.671100 -11.276354 -8.105603 -106.319908 7.110628 -5.695138 40.385434 -0.464008 0.728974 12.801594 1.285500 0.440200 2.303800 -126.263294 2.097749 -11.635455 52.512500 -47.502252 -6.838743 8.028463 12.384054 31.598279 -7.125000 0.000000 0.000000 126.226567 -6.040023 -18.856653 -52.857838 48.763247 -0.739781 -1.057839 4.584912 38.538485 7.125000 0.000000 0.000000 
-6.216296 20.565478 0.473932 36.169519 85.712798 83.380036 -72.895616 -61.173895 -31.106307 19.885109 6.645174 55.729319 8.449808 0.181687 -65.255530 0.276800 3.383800 9.349100 81.577965 61.905371 -27.999124 -21.344169 -6.980663 57.658448 -9.733551 -5.080919 -63.282457 -0.136600 2.382000 -6.562600 -11.941236 -8.765666 -106.058002 7.387877 -5.915209 39.856414 0.048406 0.603638 15.822363 1.315100 0.459900 2.443800 -126.468155 2.177246 -12.359145 52.418631 -47.177842 -6.805410 8.208339 12.268053 32.341397 -7.125000 0.000000 0.000000 126.391322 -6.180001 -19.225329 -52.656873 48.365712 -0.679062 -1.174923 5.255044 38.281054 7.125000 0.000000 0.000000 
-6.210249 20.563513 0.487160 34.118507 85.487750 81.537878 -72.193675 -61.286712 -31.851958 19.867810 6.746489 56.050011 8.456102 0.397839 -65.115588 0.207300 2.931500 8.088000 81.010389 62.271289 -28.579106 -21.282031 -7.028229 57.783375 -9.689142 -4.936308 -63.315117 -0.133300 2.353000 -6.482400 -13.482661 -9.993279 -105.610471 7.704378 -6.116689 39.917944 3.896683 0.380221 14.177020 1.464100 0.511700 2.362600 -126.474920 2.043034 -12.913246 52.352394 -47.224908 -6.815916 8.206798 12.328295 32.749235 -7.125000 0.000000 0.000000 126.532686 -6.194132 -19.171548 -52.565322 48.261750 -0.764355 -1.423306 5.283333 37.934334 7.125000 0.000000 0.000000 
-6.204958 20.559431 0.500992 34.380660 85.564858 81.834962 -71.489360 -61.365857 -32.467755 19.817187 6.807542 56.451666 8.362595 0.364574 -65.058742 0.148400 2.482500 6.841100 80.997806 62.309144 -28.658969 -21.255793 -7.062330 57.821146 -9.719046 -4.967355 -63.288219 -0.137400 2.388700 -6.581100 -14.612587 -10.937955 -105.210299 7.966850 -6.330911 40.133853 5.955946 0.381292 11.840277 1.536000 0.516800 2.272000 -126.459639 1.825656 -13.428569 52.294144 -47.278872 -6.840660 8.225377 12.466768 32.921600 -7.125000 0.000000 0.000000 126.577509 -6.226928 -18.894091 -52.657186 48.288960 -0.860666 -1.612082 5.238120 37.491942 7.125000 0.000000 0.000000 
